mtllib TopL.mtl

v -0.165396 0.350294 -0.062380
v -0.338052 0.755940 -0.160692
v -0.338052 0.652304 0.226082
v -0.165396 0.481251 0.264200
v -0.235181 0.602146 0.262750
v 0.188684 0.350294 -0.062380
v 0.188684 0.875905 -0.181818
v -0.165396 0.876614 -0.184463
v 0.011108 0.917522 -0.186151
v 0.188684 0.481960 0.261556
v 0.252280 0.606063 0.261007
v 0.338052 0.652304 0.226082
v 0.338052 0.755940 -0.160692
v -0.338052 0.652304 0.226082
v -0.230579 0.036920 -0.015656
v -0.112790 0.037976 0.019949
v -0.165396 0.481251 0.264200
v 0.230579 0.036920 -0.015656
v 0.230579 0.102132 -0.259033
v 0.338052 0.755940 -0.160692
v 0.338052 0.652304 0.226082
v -0.230579 0.102132 -0.259033
v -0.338052 0.755940 -0.160692
v -0.165396 0.876614 -0.184463
v -0.112790 0.120850 -0.289340
v -0.230579 0.102132 -0.259033
v -0.230579 0.036920 -0.015656
v -0.338052 0.652304 0.226082
v -0.338052 0.755940 -0.160692
v -0.230579 0.102132 -0.259033
v -0.112790 0.120850 -0.289340
v -0.112790 0.037976 0.019949
v -0.230579 0.036920 -0.015656
v 0.128699 0.120408 -0.287692
v 0.128699 0.038428 0.018263
v 0.128699 0.038428 0.018263
v 0.188684 0.481960 0.261556
v 0.128699 0.120408 -0.287692
v 0.188684 0.875905 -0.181818
v 0.338052 0.755940 -0.160692
v 0.230579 0.102132 -0.259033
v 0.230579 0.102132 -0.259033
v 0.230579 0.036920 -0.015656
v 0.230579 0.036920 -0.015656
v 0.338052 0.652304 0.226082
v 0.011108 0.917522 -0.186151
v 0.252280 0.606063 0.261007
v -0.235181 0.602146 0.262750

vt 0.923798 0.562256
vt 0.905945 0.582947
vt 0.905945 0.541534
vt 0.923798 0.533173
vt 0.916565 0.536530
vt 0.960388 0.562256
vt 0.960388 0.588257
vt 0.923798 0.588531
vt 0.942047 0.589813
vt 0.960388 0.533447
vt 0.966980 0.536835
vt 0.975830 0.541534
vt 0.975830 0.582947
vt 0.034668 0.382080
vt 0.085083 0.049469
vt 0.140320 0.054657
vt 0.115662 0.303436
vt 0.413544 0.049469
vt 0.498108 0.049469
vt 0.497223 0.382080
vt 0.412750 0.382080
vt 0.611237 0.049469
vt 0.560242 0.382080
vt 0.642181 0.437988
vt 0.667145 0.054657
vt 0.985565 0.049469
vt 0.942535 0.049469
vt 0.941986 0.382080
vt 0.984955 0.382080
vt 0.978516 0.928040
vt 0.961334 0.923065
vt 0.961334 0.969849
vt 0.978516 0.964844
vt 0.926025 0.923309
vt 0.926025 0.969574
vt 0.253632 0.054657
vt 0.281769 0.303436
vt 0.781769 0.054657
vt 0.810242 0.437988
vt 0.881165 0.382080
vt 0.830139 0.049469
vt 0.911133 0.928040
vt 0.911133 0.964844
vt 0.301422 0.049469
vt 0.351837 0.382080
vt 0.725983 0.457764
vt 0.311584 0.364044
vt 0.082916 0.362366

vn 0.324451 0.735638 0.594616
vn -0.483882 0.867979 -0.111672
vn -0.533769 -0.165222 0.829333
vn -0.005798 0.136841 0.990576
vn 0.448242 0.283116 0.847894
vn -0.338140 0.721752 0.603933
vn 0.249205 0.507613 -0.824758
vn -0.204284 0.516025 -0.831857
vn 0.025269 0.989032 -0.145525
vn 0.041322 0.114703 0.992540
vn -0.448254 0.235265 0.862391
vn 0.565679 -0.192723 0.801789
vn 0.521832 0.846388 -0.106391
vn -0.533769 -0.165222 0.829333
vn -0.640061 -0.733172 0.229742
vn -0.115477 -0.921304 0.371299
vn -0.005798 0.136841 0.990576
vn 0.651586 -0.727156 0.216056
vn 0.576109 -0.510180 -0.638605
vn 0.521832 0.846388 -0.106391
vn 0.565679 -0.192723 0.801789
vn -0.574415 -0.509282 -0.640842
vn -0.483882 0.867979 -0.111672
vn -0.204284 0.516025 -0.831857
vn -0.046754 -0.560786 -0.826640
vn -0.574415 -0.509282 -0.640842
vn -0.640061 -0.733172 0.229742
vn -0.533769 -0.165222 0.829333
vn -0.483882 0.867979 -0.111672
vn -0.574415 -0.509282 -0.640842
vn -0.046754 -0.560786 -0.826640
vn -0.115477 -0.921304 0.371299
vn -0.640061 -0.733172 0.229742
vn 0.052918 -0.561669 -0.825668
vn 0.130979 -0.922284 0.363643
vn 0.130979 -0.922284 0.363643
vn 0.041322 0.114703 0.992540
vn 0.052918 -0.561669 -0.825668
vn 0.249205 0.507613 -0.824758
vn 0.521832 0.846388 -0.106391
vn 0.576109 -0.510180 -0.638605
vn 0.576109 -0.510180 -0.638605
vn 0.651586 -0.727156 0.216056
vn 0.651586 -0.727156 0.216056
vn 0.565679 -0.192723 0.801789
vn 0.025269 0.989032 -0.145525
vn -0.448254 0.235265 0.862391
vn 0.448242 0.283116 0.847894

g polygon0
s 1
usemtl mat1
f 1/1/1 2/2/2 3/3/3
f 4/4/4 1/1/1 3/3/3
f 5/5/5 4/4/4 3/3/3
f 1/1/1 6/6/6 7/7/7
f 8/8/8 1/1/1 7/7/7
f 9/9/9 8/8/8 7/7/7
f 10/10/10 11/11/11 12/12/12
f 6/6/6 10/10/10 12/12/12
f 13/13/13 6/6/6 12/12/12
f 14/14/14 15/15/15 16/16/16
f 17/17/17 14/14/14 16/16/16
f 18/18/18 19/19/19 20/20/20
f 21/21/21 18/18/18 20/20/20
f 22/22/22 23/23/23 24/24/24
f 25/25/25 22/22/22 24/24/24
f 26/26/26 27/27/27 28/28/28
f 29/29/29 26/26/26 28/28/28
f 30/30/30 31/31/31 32/32/32
f 33/33/33 30/30/30 32/32/32
f 32/32/32 31/31/31 34/34/34
f 35/35/35 32/32/32 34/34/34
f 17/17/17 16/16/16 36/36/36
f 37/37/37 17/17/17 36/36/36
f 38/38/38 39/39/39 40/40/40
f 41/41/41 38/38/38 40/40/40
f 34/34/34 42/42/42 43/43/43
f 35/35/35 34/34/34 43/43/43
f 1/1/1 4/4/4 10/10/10
f 6/6/6 1/1/1 10/10/10
f 24/24/24 39/39/39 38/38/38
f 25/25/25 24/24/24 38/38/38
f 37/37/37 36/36/36 44/44/44
f 45/45/45 37/37/37 44/44/44
f 39/39/39 24/24/24 46/46/46
f 13/13/13 7/7/7 6/6/6
f 47/47/47 37/37/37 45/45/45
f 2/2/2 1/1/1 8/8/8
f 48/48/48 14/14/14 17/17/17

v -0.220859 0.242270 -0.029716
v -0.108942 0.230811 0.068539
v -0.215146 0.755943 0.264202
v -0.329880 0.789150 0.171692
v -0.108942 0.230811 0.068539
v 0.023566 0.279287 -0.050602
v -0.090732 0.867403 0.161692
v -0.215146 0.755943 0.264202
v 0.023566 0.279287 -0.050602
v -0.114178 0.293370 -0.171524
v -0.231729 0.906387 0.047318
v -0.090732 0.867403 0.161692
v -0.114178 0.293370 -0.171524
v -0.220859 0.242270 -0.029716
v -0.329880 0.789150 0.171692
v -0.231729 0.906387 0.047318
v -0.114178 0.293370 -0.171524
v 0.023566 0.279287 -0.050602
v -0.108942 0.230811 0.068539
v -0.220859 0.242270 -0.029716
v -0.329880 0.789150 0.171692
v -0.215146 0.755943 0.264202
v -0.090732 0.867403 0.161692
v -0.231729 0.906387 0.047318
v -0.027454 0.116031 0.044560
v 0.087756 0.090942 -0.013708
v 0.329880 0.688849 0.178907
v 0.208600 0.729477 0.247089
v 0.087756 0.090942 -0.013708
v 0.053876 0.160117 -0.183736
v 0.305243 0.797558 0.024278
v 0.329880 0.688849 0.178907
v 0.053876 0.160117 -0.183736
v -0.089026 0.242430 -0.086723
v 0.143616 0.847004 0.112894
v 0.305243 0.797558 0.024278
v -0.089026 0.242430 -0.086723
v -0.027454 0.116031 0.044560
v 0.208600 0.729477 0.247089
v 0.143616 0.847004 0.112894
v -0.089026 0.242430 -0.086723
v 0.053876 0.160117 -0.183736
v 0.087756 0.090942 -0.013708
v -0.027454 0.116031 0.044560
v 0.208600 0.729477 0.247089
v 0.329880 0.688849 0.178907
v 0.305243 0.797558 0.024278
v 0.143616 0.847004 0.112894
v -0.088748 0.237939 0.102485
v 0.047488 0.237939 0.102485
v 0.091367 0.783020 0.378205
v -0.044830 0.783020 0.378205
v 0.047488 0.237939 0.102485
v 0.071292 0.320480 -0.061784
v 0.115210 0.895574 0.229000
v 0.091367 0.783020 0.378205
v 0.071292 0.320480 -0.061784
v -0.112552 0.320480 -0.061784
v -0.068674 0.895574 0.229000
v 0.115210 0.895574 0.229000
v -0.112552 0.320480 -0.061784
v -0.088748 0.237939 0.102485
v -0.044830 0.783020 0.378205
v -0.068674 0.895574 0.229000
v -0.112552 0.320480 -0.061784
v 0.071292 0.320480 -0.061784
v 0.047488 0.237939 0.102485
v -0.088748 0.237939 0.102485
v -0.044830 0.783020 0.378205
v 0.091367 0.783020 0.378205
v 0.115210 0.895574 0.229000
v -0.068674 0.895574 0.229000
v -0.049631 0.337166 -0.015379
v 0.121320 0.359938 -0.079059
v -0.018845 0.956645 0.011046
v -0.189835 0.933834 0.074716
v 0.121320 0.359938 -0.079059
v 0.037253 0.368009 -0.243609
v -0.100769 0.942147 -0.155731
v -0.018845 0.956645 0.011046
v 0.037253 0.368009 -0.243609
v -0.096167 0.350255 -0.193904
v -0.234149 0.924355 -0.106037
v -0.100769 0.942147 -0.155731
v -0.096167 0.350255 -0.193904
v -0.049631 0.337166 -0.015379
v -0.189835 0.933834 0.074716
v -0.234149 0.924355 -0.106037
v -0.096167 0.350255 -0.193904
v 0.037253 0.368009 -0.243609
v 0.121320 0.359938 -0.079059
v -0.049631 0.337166 -0.015379
v -0.189835 0.933834 0.074716
v -0.018845 0.956645 0.011046
v -0.100769 0.942147 -0.155731
v -0.234149 0.924355 -0.106037
v -0.085416 0.282441 0.006759
v 0.092557 0.236334 0.003933
v 0.271600 0.924962 0.046053
v 0.093668 0.971069 0.048878
v 0.092557 0.236334 0.003933
v 0.092557 0.247553 -0.179570
v 0.245773 0.919367 -0.138465
v 0.271600 0.924962 0.046053
v 0.092557 0.247553 -0.179570
v -0.085416 0.293659 -0.176745
v 0.108029 0.955052 -0.136296
v 0.245773 0.919367 -0.138465
v -0.085416 0.293659 -0.176745
v -0.085416 0.282441 0.006759
v 0.093668 0.971069 0.048878
v 0.108029 0.955052 -0.136296
v -0.085416 0.293659 -0.176745
v 0.092557 0.247553 -0.179570
v 0.092557 0.236334 0.003933
v -0.085416 0.282441 0.006759
v 0.093668 0.971069 0.048878
v 0.271600 0.924962 0.046053
v 0.245773 0.919367 -0.138465
v 0.108029 0.955052 -0.136296
v -0.091089 0.364837 -0.014413
v 0.051257 0.364837 -0.014413
v 0.097119 0.825290 0.176612
v -0.045227 0.825290 0.176612
v 0.051257 0.364837 -0.014413
v 0.076132 0.417381 -0.141992
v 0.121994 0.877845 0.048994
v 0.097119 0.825290 0.176612
v 0.076132 0.417381 -0.141992
v -0.115964 0.417381 -0.141992
v -0.070102 0.877845 0.048994
v 0.121994 0.877845 0.048994
v -0.115964 0.417381 -0.141992
v -0.091089 0.364837 -0.014413
v -0.045227 0.825290 0.176612
v -0.070102 0.877845 0.048994
v -0.115964 0.417381 -0.141992
v 0.076132 0.417381 -0.141992
v 0.051257 0.364837 -0.014413
v -0.091089 0.364837 -0.014413
v -0.045227 0.825290 0.176612
v 0.097119 0.825290 0.176612
v 0.121994 0.877845 0.048994
v -0.070102 0.877845 0.048994

vt 0.476410 0.510956
vt 0.584229 0.510956
vt 0.584229 0.989594
vt 0.476410 0.989594
vt 0.193848 0.510956
vt 0.302307 0.510956
vt 0.302307 0.989594
vt 0.193848 0.989594
vt 0.584229 0.510956
vt 0.476410 0.510956
vt 0.476410 0.989594
vt 0.584229 0.989594
vt 0.725952 0.510956
vt 0.618286 0.510956
vt 0.618286 0.989594
vt 0.725952 0.989594
vt 0.051270 0.510956
vt 0.159943 0.510956
vt 0.159943 0.510956
vt 0.051270 0.510956
vt 0.914642 0.699554
vt 0.980377 0.699554
vt 0.980377 0.728638
vt 0.914642 0.728638
vt 0.476410 0.510956
vt 0.584229 0.510956
vt 0.584229 0.989594
vt 0.476410 0.989594
vt 0.476410 0.510956
vt 0.584229 0.510956
vt 0.584229 0.970978
vt 0.476410 0.989594
vt 0.584229 0.989594
vt 0.476410 0.989594
vt 0.476410 0.970978
vt 0.584229 0.970978
vt 0.758087 0.510956
vt 0.865906 0.510956
vt 0.865906 0.989594
vt 0.758087 0.970978
vt 0.051270 0.510956
vt 0.159943 0.510956
vt 0.159943 0.510956
vt 0.051270 0.510956
vt 0.914642 0.719696
vt 0.980377 0.719696
vt 0.980377 0.766785
vt 0.914642 0.766785
vt 0.337189 0.510956
vt 0.445984 0.510956
vt 0.445984 0.989594
vt 0.337189 0.989594
vt 0.051270 0.510956
vt 0.159943 0.510956
vt 0.159943 0.970978
vt 0.051270 0.989594
vt 0.584229 0.989594
vt 0.476410 0.989594
vt 0.476410 0.970978
vt 0.584229 0.970978
vt 0.758087 0.510956
vt 0.865906 0.510956
vt 0.865906 0.989594
vt 0.758087 0.970978
vt 0.051270 0.510956
vt 0.159943 0.510956
vt 0.159943 0.510956
vt 0.051270 0.510956
vt 0.914642 0.719696
vt 0.980377 0.719696
vt 0.980377 0.766785
vt 0.914642 0.766785
vt 0.476410 0.510956
vt 0.584229 0.510956
vt 0.584229 0.989594
vt 0.476410 0.989594
vt 0.337189 0.510956
vt 0.445984 0.510956
vt 0.445984 0.989594
vt 0.337189 0.989594
vt 0.725952 0.510956
vt 0.618286 0.510956
vt 0.618286 0.989594
vt 0.725952 0.989594
vt 0.758087 0.510956
vt 0.865906 0.510956
vt 0.865906 0.989594
vt 0.758087 0.989594
vt 0.051270 0.510956
vt 0.159943 0.510956
vt 0.159943 0.510956
vt 0.051270 0.510956
vt 0.914642 0.699554
vt 0.980377 0.699554
vt 0.980377 0.728638
vt 0.914642 0.728638
vt 0.476410 0.510956
vt 0.584229 0.510956
vt 0.584229 0.989594
vt 0.476410 0.989594
vt 0.193848 0.510956
vt 0.302307 0.510956
vt 0.302307 0.970978
vt 0.193848 0.989594
vt 0.725952 0.510956
vt 0.618286 0.510956
vt 0.618286 0.970978
vt 0.725952 0.970978
vt 0.758087 0.510956
vt 0.865906 0.510956
vt 0.865906 0.989594
vt 0.758087 0.970978
vt 0.051270 0.510956
vt 0.159943 0.510956
vt 0.159943 0.510956
vt 0.051270 0.510956
vt 0.914642 0.719696
vt 0.980377 0.719696
vt 0.980377 0.766785
vt 0.914642 0.766785
vt 0.476410 0.510956
vt 0.584229 0.510956
vt 0.584229 0.989594
vt 0.476410 0.989594
vt 0.618286 0.510956
vt 0.725952 0.510956
vt 0.725952 0.970978
vt 0.618286 0.989594
vt 0.584229 0.510956
vt 0.476410 0.510956
vt 0.476410 0.970978
vt 0.584229 0.970978
vt 0.758087 0.510956
vt 0.865906 0.510956
vt 0.865906 0.989594
vt 0.758087 0.970978
vt 0.051270 0.510956
vt 0.159943 0.510956
vt 0.159943 0.510956
vt 0.051270 0.510956
vt 0.914642 0.719696
vt 0.980377 0.719696
vt 0.980377 0.766785
vt 0.914642 0.766785

vn -0.638795 -0.376710 0.670843
vn -0.638795 -0.376710 0.670843
vn -0.638795 -0.376710 0.670843
vn -0.638795 -0.376710 0.670843
vn 0.691267 -0.123901 0.711898
vn 0.691267 -0.123901 0.711898
vn 0.691267 -0.123901 0.711898
vn 0.691267 -0.123901 0.711898
vn 0.639967 0.366049 -0.675611
vn 0.639967 0.366049 -0.675611
vn 0.639967 0.366049 -0.675611
vn 0.639967 0.366049 -0.675611
vn -0.807790 0.054836 -0.586914
vn -0.807790 0.054836 -0.586914
vn -0.807790 0.054836 -0.586914
vn -0.807790 0.054836 -0.586914
vn 0.123658 -0.959609 -0.252703
vn 0.123658 -0.959609 -0.252703
vn 0.123658 -0.959609 -0.252703
vn 0.123658 -0.959609 -0.252703
vn -0.234801 0.790196 0.566090
vn -0.234801 0.790196 0.566090
vn -0.234801 0.790196 0.566090
vn -0.234801 0.790196 0.566090
vn 0.338812 -0.409969 0.846836
vn 0.338812 -0.409969 0.846836
vn 0.338812 -0.409969 0.846836
vn 0.338812 -0.409969 0.846836
vn 0.913352 -0.264462 -0.309593
vn 0.913352 -0.264462 -0.309593
vn 0.913352 -0.264462 -0.309593
vn 0.913352 -0.264462 -0.309593
vn -0.338812 0.409969 -0.846836
vn -0.338812 0.409969 -0.846836
vn -0.338812 0.409969 -0.846836
vn -0.338812 0.409969 -0.846836
vn -0.834390 0.145561 0.531606
vn -0.834390 0.145561 0.531606
vn -0.834390 0.145561 0.531606
vn -0.834390 0.145561 0.531606
vn -0.527706 -0.779100 -0.338421
vn -0.527706 -0.779100 -0.338421
vn -0.527706 -0.779100 -0.338421
vn -0.527706 -0.779100 -0.338421
vn 0.484877 0.755237 0.441034
vn 0.484877 0.755237 0.441034
vn 0.484877 0.755237 0.441034
vn 0.484877 0.755237 0.441034
vn 0.000000 -0.451352 0.892346
vn 0.000000 -0.451352 0.892346
vn 0.000000 -0.451352 0.892346
vn 0.000000 -0.451352 0.892346
vn 0.990105 -0.116861 0.077686
vn 0.990105 -0.116861 0.077686
vn 0.990105 -0.116861 0.077686
vn 0.990105 -0.116861 0.077686
vn 0.000000 0.451246 -0.892400
vn 0.000000 0.451246 -0.892400
vn 0.000000 0.451246 -0.892400
vn 0.000000 0.451246 -0.892400
vn -0.988550 0.001148 0.150889
vn -0.988550 0.001148 0.150889
vn -0.988550 0.001148 0.150889
vn -0.988550 0.001148 0.150889
vn 0.000000 -0.893499 -0.449065
vn 0.000000 -0.893499 -0.449065
vn 0.000000 -0.893499 -0.449065
vn 0.000000 -0.893499 -0.449065
vn 0.000000 0.798423 0.602097
vn 0.000000 0.798423 0.602097
vn 0.000000 0.798423 0.602097
vn 0.000000 0.798423 0.602097
vn 0.355157 -0.057476 0.933038
vn 0.355157 -0.057476 0.933038
vn 0.355157 -0.057476 0.933038
vn 0.355157 -0.057476 0.933038
vn 0.858704 0.270223 -0.435438
vn 0.858704 0.270223 -0.435438
vn 0.858704 0.270223 -0.435438
vn 0.858704 0.270223 -0.435438
vn -0.355157 0.057476 -0.933038
vn -0.355157 0.057476 -0.933038
vn -0.355157 0.057476 -0.933038
vn -0.355157 0.057476 -0.933038
vn -0.937209 -0.258301 0.234349
vn -0.937209 -0.258301 0.234349
vn -0.937209 -0.258301 0.234349
vn -0.937209 -0.258301 0.234349
vn 0.095701 -0.990631 -0.097425
vn 0.095701 -0.990631 -0.097425
vn 0.095701 -0.990631 -0.097425
vn 0.095701 -0.990631 -0.097425
vn -0.138611 0.990183 -0.018017
vn -0.138611 0.990183 -0.018017
vn -0.138611 0.990183 -0.018017
vn -0.138611 0.990183 -0.018017
vn 0.000000 -0.061074 0.998133
vn 0.000000 -0.061074 0.998133
vn 0.000000 -0.061074 0.998133
vn 0.000000 -0.061074 0.998133
vn 0.969945 -0.232534 -0.071659
vn 0.969945 -0.232534 -0.071659
vn 0.969945 -0.232534 -0.071659
vn 0.969945 -0.232534 -0.071659
vn 0.000000 0.061074 -0.998133
vn 0.000000 0.061074 -0.998133
vn 0.000000 0.061074 -0.998133
vn 0.000000 0.061074 -0.998133
vn -0.962517 0.268101 -0.041016
vn -0.962517 0.268101 -0.041016
vn -0.962517 0.268101 -0.041016
vn -0.962517 0.268101 -0.041016
vn -0.251226 -0.966121 -0.059129
vn -0.251226 -0.966121 -0.059129
vn -0.251226 -0.966121 -0.059129
vn -0.251226 -0.966121 -0.059129
vn 0.249327 0.966300 -0.064033
vn 0.249327 0.966300 -0.064033
vn 0.249327 0.966300 -0.064033
vn 0.249327 0.966300 -0.064033
vn 0.000000 -0.383106 0.923704
vn 0.000000 -0.383106 0.923704
vn 0.000000 -0.383106 0.923704
vn 0.000000 -0.383106 0.923704
vn 0.980081 -0.151062 0.128927
vn 0.980081 -0.151062 0.128927
vn 0.980081 -0.151062 0.128927
vn 0.980081 -0.151062 0.128927
vn 0.000000 0.383106 -0.923704
vn 0.000000 0.383106 -0.923704
vn 0.000000 0.383106 -0.923704
vn 0.000000 0.383106 -0.923704
vn -0.980158 0.015612 0.197601
vn -0.980158 0.015612 0.197601
vn -0.980158 0.015612 0.197601
vn -0.980158 0.015612 0.197601
vn 0.000000 -0.924598 -0.380945
vn 0.000000 -0.924598 -0.380945
vn 0.000000 -0.924598 -0.380945
vn 0.000000 -0.924598 -0.380945
vn 0.000000 0.924598 0.380945
vn 0.000000 0.924598 0.380945
vn 0.000000 0.924598 0.380945
vn 0.000000 0.924598 0.380945

g polygon1
s 1
usemtl mat1
f 49/49/49 50/50/50 51/51/51
f 52/52/52 49/49/49 51/51/51
f 53/53/53 54/54/54 55/55/55
f 56/56/56 53/53/53 55/55/55
f 57/57/57 58/58/58 59/59/59
f 60/60/60 57/57/57 59/59/59
f 61/61/61 62/62/62 63/63/63
f 64/64/64 61/61/61 63/63/63
f 65/65/65 66/66/66 67/67/67
f 68/68/68 65/65/65 67/67/67
f 69/69/69 70/70/70 71/71/71
f 72/72/72 69/69/69 71/71/71
f 73/73/73 74/74/74 75/75/75
f 76/76/76 73/73/73 75/75/75
f 77/77/77 78/78/78 79/79/79
f 80/80/80 77/77/77 79/79/79
f 81/81/81 82/82/82 83/83/83
f 84/84/84 81/81/81 83/83/83
f 85/85/85 86/86/86 87/87/87
f 88/88/88 85/85/85 87/87/87
f 89/89/89 90/90/90 91/91/91
f 92/92/92 89/89/89 91/91/91
f 93/93/93 94/94/94 95/95/95
f 96/96/96 93/93/93 95/95/95
f 97/97/97 98/98/98 99/99/99
f 100/100/100 97/97/97 99/99/99
f 101/101/101 102/102/102 103/103/103
f 104/104/104 101/101/101 103/103/103
f 105/105/105 106/106/106 107/107/107
f 108/108/108 105/105/105 107/107/107
f 109/109/109 110/110/110 111/111/111
f 112/112/112 109/109/109 111/111/111
f 113/113/113 114/114/114 115/115/115
f 116/116/116 113/113/113 115/115/115
f 117/117/117 118/118/118 119/119/119
f 120/120/120 117/117/117 119/119/119
f 121/121/121 122/122/122 123/123/123
f 124/124/124 121/121/121 123/123/123
f 125/125/125 126/126/126 127/127/127
f 128/128/128 125/125/125 127/127/127
f 129/129/129 130/130/130 131/131/131
f 132/132/132 129/129/129 131/131/131
f 133/133/133 134/134/134 135/135/135
f 136/136/136 133/133/133 135/135/135
f 137/137/137 138/138/138 139/139/139
f 140/140/140 137/137/137 139/139/139
f 141/141/141 142/142/142 143/143/143
f 144/144/144 141/141/141 143/143/143
f 145/145/145 146/146/146 147/147/147
f 148/148/148 145/145/145 147/147/147
f 149/149/149 150/150/150 151/151/151
f 152/152/152 149/149/149 151/151/151
f 153/153/153 154/154/154 155/155/155
f 156/156/156 153/153/153 155/155/155
f 157/157/157 158/158/158 159/159/159
f 160/160/160 157/157/157 159/159/159
f 161/161/161 162/162/162 163/163/163
f 164/164/164 161/161/161 163/163/163
f 165/165/165 166/166/166 167/167/167
f 168/168/168 165/165/165 167/167/167
f 169/169/169 170/170/170 171/171/171
f 172/172/172 169/169/169 171/171/171
f 173/173/173 174/174/174 175/175/175
f 176/176/176 173/173/173 175/175/175
f 177/177/177 178/178/178 179/179/179
f 180/180/180 177/177/177 179/179/179
f 181/181/181 182/182/182 183/183/183
f 184/184/184 181/181/181 183/183/183
f 185/185/185 186/186/186 187/187/187
f 188/188/188 185/185/185 187/187/187
f 189/189/189 190/190/190 191/191/191
f 192/192/192 189/189/189 191/191/191

